<svg id="SvgjsSvg1000" xmlns="http://www.w3.org/2000/svg" version="1.1" xmlns:xlink="http://www.w3.org/1999/xlink" xmlns:svgjs="http://svgjs.com/svgjs" width="29" height="35" viewBox="0 0 29 35"><title>Page 1 Copy</title><desc>Created with Avocode.</desc><defs id="SvgjsDefs1001"></defs><path id="SvgjsPath1007" d="M632.21 994.09L632.1800000000001 994.11L632.1500000000001 994.09C631.1300000000001 993.6 627.6000000000001 991.8000000000001 624.58 989.12C623.2 987.91 622.12 986.67 621.36 985.46C620.48 984.0500000000001 620.04 982.6500000000001 620.04 981.3100000000001V968.4200000000001H620.14C621.46 968.4200000000001 623.49 968.3100000000001 625.68 967.7700000000001C628.17 967.1600000000001 630.3399999999999 966.1400000000001 632.13 964.7500000000001L632.18 964.7100000000002L632.2199999999999 964.7500000000001C634.0199999999999 966.1400000000001 636.1899999999999 967.1600000000001 638.67 967.7700000000001C640.87 968.3100000000001 642.9 968.4200000000001 644.2199999999999 968.4200000000001H644.3199999999999V981.3100000000001C644.3199999999999 982.6500000000001 643.8699999999999 984.0400000000001 642.9899999999999 985.45C642.2399999999999 986.6600000000001 641.1499999999999 987.9000000000001 639.7799999999999 989.11C636.7599999999999 991.79 633.2199999999999 993.6 632.2099999999998 994.09ZM646.35 966.29C646.11 966.3199999999999 645.32 966.4 644.22 966.4C641.3100000000001 966.4 635.9 965.8299999999999 632.1800000000001 962C628.45 965.83 623.0400000000001 966.4 620.1400000000001 966.4C619.0300000000001 966.4 618.2500000000001 966.3199999999999 618.0000000000001 966.29V981.31C618.0000000000001 983.3299999999999 618.7400000000001 985.3699999999999 620.2100000000002 987.38C621.3900000000001 989 623.0300000000002 990.6 625.1000000000001 992.14C628.4400000000002 994.64 631.8300000000002 996.18 632.1800000000002 996.33C632.5200000000002 996.1800000000001 635.9100000000002 994.64 639.2600000000002 992.14C641.3200000000002 990.6 642.9700000000003 989 644.1400000000002 987.38C645.6100000000002 985.37 646.3500000000003 983.32 646.3500000000003 981.31Z " fill="#74bb2c" fill-opacity="1" transform="matrix(1,0,0,1,-618,-962)"></path><path id="SvgjsPath1008" d="M633.94 977.48H629.9200000000001V975.8100000000001C629.9200000000001 974.71 630.82 973.82 631.9300000000001 973.82C633.0300000000001 973.82 633.94 974.71 633.94 975.8100000000001ZM632.55 983.55C632.55 983.68 632.43 983.8 632.29 983.8H631.56C631.42 983.8 631.3 983.68 631.3 983.55V981.9699999999999C631.03 981.7799999999999 630.8499999999999 981.4599999999999 630.8499999999999 981.1099999999999C630.8499999999999 980.5199999999999 631.3299999999999 980.0399999999998 631.93 980.0399999999998C632.52 980.0399999999998 633 980.5199999999999 633 981.1099999999999C633 981.4599999999999 632.82 981.7799999999999 632.55 981.9699999999999ZM635.77 977.48V975.8100000000001C635.77 973.71 634.05 972.0000000000001 631.93 972.0000000000001C629.8 972.0000000000001 628.0799999999999 973.7100000000002 628.0799999999999 975.8100000000001V977.48H627.4C627.18 977.48 627 977.65 627 977.87V985.26C627 985.48 627.18 985.65 627.4 985.65H636.4499999999999C636.67 985.65 636.8499999999999 985.48 636.8499999999999 985.26V977.87C636.8499999999999 977.65 636.67 977.48 636.4499999999999 977.48Z " fill="#74bb2c" fill-opacity="1" transform="matrix(1,0,0,1,-618,-962)"></path></svg>