<svg id="SvgjsSvg1000" xmlns="http://www.w3.org/2000/svg" version="1.1" xmlns:xlink="http://www.w3.org/1999/xlink" xmlns:svgjs="http://svgjs.com/svgjs" width="137" height="39" viewBox="0 0 137 39"><title>Logo</title><desc>Created with Avocode.</desc><defs id="SvgjsDefs1001"></defs><path id="SvgjsPath1007" d="M253.73 34.75C252.82999999999998 33.85 251.48999999999998 33.39 249.72 33.39H247.39V44.38H249.33999999999997C251.24999999999997 44.38 252.67999999999998 43.92 253.64 42.980000000000004C254.6 42.040000000000006 255.07999999999998 40.650000000000006 255.07999999999998 38.81C255.07999999999998 37.02 254.63 35.660000000000004 253.73 34.75ZM254.93 43.97C253.69 45.17 251.92000000000002 45.769999999999996 249.6 45.769999999999996H245.79V31.999999999999996H250C252.15 31.999999999999996 253.81 32.589999999999996 255 33.779999999999994C256.18 34.96999999999999 256.78 36.629999999999995 256.78 38.74999999999999C256.78 41.029999999999994 256.15999999999997 42.769999999999996 254.92999999999998 43.96999999999999ZM235.47 38.67H237.66C238.79 38.67 239.62 38.45 240.15 38C240.67000000000002 37.55 240.94 36.88 240.94 35.98C240.94 35.07 240.67 34.41 240.13 34.01C239.6 33.61 238.74 33.41 237.54999999999998 33.41H235.46999999999997ZM235.47 40.05V45.769999999999996H233.87V31.999999999999996H237.64000000000001C239.33 31.999999999999996 240.58 32.33 241.39000000000001 32.97C242.19000000000003 33.62 242.59 34.589999999999996 242.59 35.89C242.59 37.71 241.67000000000002 38.94 239.83 39.59L243.57000000000002 45.77H241.67000000000002L238.34 40.050000000000004ZM228.49 32H230.10000000000002V45.769999999999996H228.49ZM220.34 39.25C221.52 39.25 222.39000000000001 39.45 222.97 39.85C223.54 40.26 223.83 40.89 223.83 41.74C223.83 42.660000000000004 223.54000000000002 43.330000000000005 222.98000000000002 43.760000000000005C222.42000000000002 44.190000000000005 221.58 44.410000000000004 220.48000000000002 44.410000000000004H217.60000000000002V39.25ZM217.6 33.39H219.96C221.16 33.39 222.04000000000002 33.56 222.59 33.9C223.14000000000001 34.24 223.42000000000002 34.8 223.42000000000002 35.58C223.42000000000002 36.42 223.17000000000002 37.019999999999996 222.67000000000002 37.37C222.18 37.73 221.37 37.9 220.24 37.9H217.60000000000002ZM216 45.77H220.8C222.3 45.77 223.46 45.43 224.29000000000002 44.74C225.12000000000003 44.050000000000004 225.54000000000002 43.09 225.54000000000002 41.85C225.54000000000002 40.02 224.49 38.910000000000004 222.40000000000003 38.56V38.46C223.28000000000003 38.31 223.94000000000003 37.96 224.40000000000003 37.43C224.85000000000002 36.9 225.08000000000004 36.23 225.08000000000004 35.41C225.08000000000004 34.23 224.67000000000004 33.37 223.85000000000005 32.81999999999999C223.04000000000005 32.269999999999996 221.71000000000006 31.999999999999993 219.89000000000004 31.999999999999993H216.00000000000006Z " fill="#ee498d" fill-opacity="1" transform="matrix(1,0,0,1,-120,-18)"></path><path id="SvgjsPath1008" d="M135.75 20.59C135.75 20.94 135.47 21.22 135.12 21.22C134.77 21.22 134.49 20.939999999999998 134.49 20.59C134.49 20.24 134.77 19.95 135.12 19.95C135.47 19.95 135.75 20.24 135.75 20.59ZM142.68 36.3C142.68 36.769999999999996 142.28 37.15 141.77 37.15C141.27 37.15 140.87 36.769999999999996 140.87 36.3C140.87 35.82 141.27 35.44 141.77 35.44C142.28 35.44 142.68 35.82 142.68 36.3ZM135.58 56.55H134.66000000000003V53.8C134.97000000000003 53.8 135.28000000000003 53.79 135.58 53.769999999999996ZM137.37 18.63C137.37 18.279999999999998 136.36 18 135.12 18C133.88 18 132.87 18.28 132.87 18.63V24.439999999999998H132.89000000000001L132.96 24.429999999999996L133.02 24.419999999999995H133.11L133.19000000000003 24.409999999999993H133.22000000000003L133.27000000000004 24.39999999999999H133.35000000000005L133.42000000000004 24.38999999999999H133.50000000000006L133.58000000000007 24.37999999999999H133.66000000000008L133.82000000000008 24.369999999999987H133.8400000000001L133.9000000000001 24.359999999999985H134.0600000000001L134.1400000000001 24.349999999999984H134.3000000000001L134.3800000000001 24.339999999999982H134.4200000000001V26.619999999999983C126.3900000000001 26.989999999999984 120.0000000000001 33.609999999999985 120.0000000000001 41.72999999999998C120.0000000000001 47.719999999999985 123.4800000000001 52.889999999999986 128.5200000000001 55.34999999999998V55.58999999999998C128.5200000000001 56.11999999999998 128.9500000000001 56.54999999999998 129.4800000000001 56.54999999999998H133.6800000000001V53.76999999999998C131.1100000000001 53.58999999999998 128.5600000000001 52.62999999999998 126.62000000000009 50.68999999999998C132.9300000000001 51.27999999999999 135.5600000000001 48.41999999999998 135.07000000000008 39.219999999999985C134.89000000000007 35.90999999999998 136.95000000000007 33.48999999999998 139.6800000000001 32.94999999999999C142.3300000000001 32.429999999999986 145.3900000000001 33.86999999999999 146.19000000000008 37.18999999999999L148.60000000000008 38.01999999999999L146.55000000000007 39.62999999999999C146.96000000000006 46.639999999999986 144.00000000000006 52.569999999999986 136.56000000000006 53.65999999999999V56.54999999999999H140.76000000000005C141.29000000000005 56.54999999999999 141.72000000000006 56.11999999999999 141.72000000000006 55.58999999999999V55.34999999999999C146.76000000000005 52.889999999999986 150.24000000000007 47.719999999999985 150.24000000000007 41.72999999999999C150.24000000000007 33.60999999999999 143.85000000000008 26.989999999999988 135.82000000000008 26.61999999999999V24.33999999999999H135.86000000000007L135.94000000000008 24.34999999999999H136.10000000000008L136.1800000000001 24.359999999999992H136.3400000000001L136.4000000000001 24.369999999999994H136.4200000000001L136.5800000000001 24.379999999999995H136.6600000000001L136.74000000000012 24.389999999999997H136.82000000000014L136.89000000000013 24.4H136.97000000000014L137.02000000000015 24.41H137.05000000000015L137.13000000000017 24.42H137.22000000000017L137.28000000000017 24.430000000000003L137.35000000000016 24.440000000000005H137.37000000000018Z " fill="#010201" fill-opacity="1" transform="matrix(1,0,0,1,-120,-18)"></path><path id="SvgjsPath1009" d="M178.92 52C179.44 52 179.85 52.41 179.85 52.93C179.85 53.44 179.44 53.85 178.92 53.85C178.41 53.85 178 53.440000000000005 178 52.93C178 52.41 178.41 52 178.92 52 " fill="#010201" fill-opacity="1" transform="matrix(1,0,0,1,-120,-18)"></path><path id="SvgjsPath1010" d="M235.93 52C236.44 52 236.85 52.41 236.85 52.93C236.85 53.44 236.44 53.85 235.93 53.85C235.41 53.85 235 53.440000000000005 235 52.93C235 52.41 235.41 52 235.93 52 " fill="#010201" fill-opacity="1" transform="matrix(1,0,0,1,-120,-18)"></path><path id="SvgjsPath1011" d="M232.33 54.29H231.97L230.35 52.06L229.78 52.550000000000004V54.290000000000006H229.49V50.06H229.78V52.260000000000005L230.26 51.790000000000006L231.91 50.06000000000001H232.28L230.56 51.85000000000001ZM222.77 52.19H223.58C223.94000000000003 52.19 224.21 52.11 224.41000000000003 51.949999999999996C224.60000000000002 51.8 224.70000000000002 51.559999999999995 224.70000000000002 51.24999999999999C224.70000000000002 50.92999999999999 224.61 50.68999999999999 224.41000000000003 50.53999999999999C224.22000000000003 50.38999999999999 223.91000000000003 50.31999999999999 223.47000000000003 50.31999999999999H222.77000000000004ZM222.77 52.45V54.290000000000006H222.48000000000002V50.06H223.49C224.01000000000002 50.06 224.4 50.160000000000004 224.65 50.35C224.9 50.550000000000004 225.02 50.84 225.02 51.230000000000004C225.02 51.510000000000005 224.95000000000002 51.75000000000001 224.8 51.95C224.65 52.14 224.42000000000002 52.28 224.12 52.370000000000005L225.27 54.290000000000006H224.91L223.82 52.45ZM214.96 53.58C215.23000000000002 53.91 215.62 54.07 216.12 54.07C216.63 54.07 217.02 53.910000000000004 217.29 53.58C217.56 53.25 217.69 52.78 217.69 52.17C217.69 51.56 217.56 51.09 217.29 50.77C217.01999999999998 50.440000000000005 216.63 50.28 216.13 50.28C215.62 50.28 215.24 50.44 214.96 50.77C214.69 51.1 214.56 51.57 214.56 52.17C214.56 52.77 214.69 53.25 214.96 53.58ZM217.51 53.77C217.17999999999998 54.150000000000006 216.70999999999998 54.35 216.12 54.35C215.54 54.35 215.07 54.15 214.73000000000002 53.77C214.4 53.38 214.24 52.84 214.24 52.17C214.24 51.49 214.4 50.96 214.74 50.58C215.08 50.19 215.54000000000002 50 216.13 50C216.72 50 217.18 50.19 217.51 50.58C217.85 50.97 218.01 51.5 218.01 52.17C218.01 52.84 217.84 53.38 217.51 53.77ZM200.89 54.29H200.64999999999998L199.71999999999997 51.03C199.64999999999998 50.76 199.58999999999997 50.54 199.54999999999998 50.370000000000005C199.51999999999998 50.540000000000006 199.46999999999997 50.730000000000004 199.42 50.95C199.35999999999999 51.17 199.04999999999998 52.28 198.48999999999998 54.290000000000006H198.23999999999998L197.07 50.06H197.38L198.13 52.79C198.15 52.9 198.18 53 198.21 53.089999999999996C198.23000000000002 53.19 198.25 53.269999999999996 198.27 53.36C198.29000000000002 53.44 198.31 53.519999999999996 198.33 53.589999999999996C198.35000000000002 53.669999999999995 198.36 53.74999999999999 198.37 53.81999999999999C198.42000000000002 53.559999999999995 198.52 53.16 198.67000000000002 52.629999999999995L199.39000000000001 50.059999999999995H199.72000000000003L200.57000000000002 53.01C200.66000000000003 53.35 200.73000000000002 53.62 200.78000000000003 53.83C200.80000000000004 53.69 200.83000000000004 53.54 200.87000000000003 53.39C200.91000000000003 53.230000000000004 201.21000000000004 52.12 201.76000000000002 50.06H202.06000000000003ZM193.08 54.29H190.77V50.06H193.08V50.34H191.06V51.93000000000001H192.96V52.21000000000001H191.06V54.02000000000001H193.08ZM208.81 52.38L210.05 50.06H210.37L208.96 52.660000000000004V54.290000000000006H208.66V52.68000000000001L207.24 50.06000000000001H207.58ZM186.07 50.06H185.79V52.82C185.79 53.13 185.79 53.46 185.81 53.81H185.79L183.29999999999998 50.06H182.99999999999997V54.290000000000006H183.27999999999997V51.550000000000004C183.27999999999997 51.32000000000001 183.26999999999998 50.980000000000004 183.24999999999997 50.540000000000006H183.26999999999998L185.77999999999997 54.290000000000006H186.06999999999996Z " fill="#010201" fill-opacity="1" transform="matrix(1,0,0,1,-120,-18)"></path><path id="SvgjsPath1012" d="M209.52 33.1H214V32.190000000000005H204.08V33.1H208.55V45.97H209.52ZM202.03 32.19H201.1V41.18C201.1 42.2 201.13 43.269999999999996 201.18 44.4H201.13L192.99 32.19H192.03V45.97H192.95V37.03C192.95 36.300000000000004 192.92 35.19 192.83999999999997 33.74H192.92L201.07 45.97H202.03ZM188.92 45.08H182.35999999999999V39.18H188.54999999999998V38.29H182.35999999999999V33.08H188.92V32.19H181.39V45.97H188.92ZM175.29 32.85C176.39 32.85 177.44 33.1 178.45 33.6L178.83999999999997 32.74C177.77999999999997 32.25 176.56999999999996 32 175.22999999999996 32C173.90999999999997 32 172.75999999999996 32.29 171.75999999999996 32.87C170.76999999999995 33.449999999999996 169.99999999999997 34.279999999999994 169.46999999999997 35.339999999999996C168.93999999999997 36.41 168.67999999999998 37.63999999999999 168.67999999999998 39.05C168.67999999999998 41.29 169.23 43.029999999999994 170.33999999999997 44.28C171.45999999999998 45.53 172.97999999999996 46.160000000000004 174.90999999999997 46.160000000000004C176.26999999999998 46.160000000000004 177.40999999999997 46.00000000000001 178.31999999999996 45.67V44.83C177.34999999999997 45.12 176.28999999999996 45.269999999999996 175.12999999999997 45.269999999999996C173.39999999999998 45.269999999999996 172.05999999999997 44.73 171.12999999999997 43.63999999999999C170.18999999999997 42.54999999999999 169.71999999999997 41.019999999999996 169.71999999999997 39.059999999999995C169.71999999999997 37.129999999999995 170.21999999999997 35.62 171.20999999999998 34.51C172.2 33.4 173.55999999999997 32.85 175.29 32.85ZM165.24 45.15C164.39000000000001 45.82 163.27 46.16 161.87 46.16C160.19 46.16 158.9 45.97 158 45.599999999999994V44.63999999999999C158.99 45.059999999999995 160.26 45.269999999999996 161.8 45.269999999999996C162.93 45.269999999999996 163.82000000000002 45.01 164.49 44.489999999999995C165.15 43.96999999999999 165.48000000000002 43.3 165.48000000000002 42.449999999999996C165.48000000000002 41.94 165.37 41.49999999999999 165.15 41.16C164.93 40.81999999999999 164.57 40.51 164.07 40.22C163.57999999999998 39.94 162.85 39.64 161.89 39.31C160.48 38.82 159.51 38.300000000000004 158.98 37.74C158.44 37.18 158.17 36.43 158.17 35.49C158.17 34.46 158.57999999999998 33.620000000000005 159.38 32.97C160.19 32.32 161.22 32 162.49 32C163.78 32 165 32.24 166.14000000000001 32.73L165.79000000000002 33.559999999999995C164.65000000000003 33.089999999999996 163.55 32.849999999999994 162.51000000000002 32.849999999999994C161.49 32.849999999999994 160.69000000000003 33.07999999999999 160.08 33.559999999999995C159.48000000000002 34.019999999999996 159.18 34.66 159.18 35.46999999999999C159.18 35.97999999999999 159.27 36.39999999999999 159.46 36.72999999999999C159.64000000000001 37.04999999999999 159.95000000000002 37.34999999999999 160.37 37.60999999999999C160.79 37.86999999999999 161.51 38.17999999999999 162.53 38.53999999999999C163.61 38.919999999999995 164.41 39.279999999999994 164.95 39.61999999999999C165.48999999999998 39.96999999999999 165.88 40.36999999999999 166.13 40.80999999999999C166.38 41.25999999999999 166.5 41.789999999999985 166.5 42.41999999999999C166.5 43.569999999999986 166.08 44.47999999999999 165.24 45.149999999999984Z " fill="#010201" fill-opacity="1" transform="matrix(1,0,0,1,-120,-18)"></path></svg>